<?xml version="1.0" standalone="no"?>
<!DOCTYPE svg PUBLIC "-//W3C//DTD SVG 20010904//EN"
 "http://www.w3.org/TR/2001/REC-SVG-20010904/DTD/svg10.dtd">
<svg version="1.0" xmlns="http://www.w3.org/2000/svg"
 width="814.000000pt" height="814.000000pt" viewBox="0 0 814.000000 814.000000"
 preserveAspectRatio="xMidYMid meet">
<metadata>
Created by potrace 1.14, written by Peter Selinger 2001-2017
</metadata>
<g transform="translate(0.000000,814.000000) scale(0.100000,-0.100000)"
fill="#000000" stroke="none">
<path d="M2630 4786 c0 -5 280 -1052 341 -1276 54 -199 44 -191 252 -188 l161
3 122 485 c67 267 123 483 124 480 1 -3 57 -221 124 -485 l122 -480 180 -3
180 -2 195 727 196 728 -170 3 c-93 1 -172 0 -175 -2 -2 -3 -56 -232 -118
-508 -63 -277 -116 -507 -117 -512 -3 -10 -131 508 -187 757 -60 269 -61 271
-229 275 -64 2 -128 -1 -142 -6 -30 -12 -45 -63 -185 -659 -48 -205 -89 -371
-91 -370 -1 2 -50 210 -108 463 -58 252 -110 473 -116 491 -6 18 -24 44 -40
58 -30 24 -35 25 -175 25 -79 0 -144 -2 -144 -4z"/>
<path d="M4802 4058 l3 -733 145 0 145 0 5 522 5 522 179 -525 180 -524 137 0
137 0 39 113 c22 61 102 298 179 526 l139 414 5 -524 5 -524 145 0 145 0 3
733 2 733 -209 -3 c-194 -3 -212 -5 -238 -24 -32 -24 -68 -123 -234 -644 -55
-173 -103 -322 -106 -330 -3 -8 -78 202 -167 467 -113 338 -168 490 -184 505
-22 22 -29 23 -242 26 l-220 3 2 -733z"/>
<path d="M2157 4433 c-4 -190 -7 -435 -7 -543 0 -183 -1 -199 -22 -240 -28
-54 -62 -80 -116 -87 -58 -8 -107 4 -143 34 -42 36 -60 82 -68 173 l-6 75
-149 3 c-113 2 -151 -1 -158 -10 -11 -18 -10 -100 2 -178 22 -140 101 -243
236 -310 129 -63 258 -73 415 -29 165 46 249 117 302 257 21 56 22 71 25 607
2 302 0 560 -3 572 -5 23 -8 23 -154 23 l-148 0 -6 -347z"/>
</g>
</svg>
